HIERARCHY
ROOT Hips
{
    OFFSET 0.000000 97.120003 0.000000
    CHANNELS 6 Xposition Yposition Zposition Yrotation Xrotation Zrotation
    JOINT RightUpLeg
    {
        OFFSET -11.000000 -0.000000 0.000000
        CHANNELS 3 Yrotation Xrotation Zrotation
        JOINT RightLeg
        {
            OFFSET 0.000000 -45.062000 0.000000
            CHANNELS 3 Yrotation Xrotation Zrotation
            JOINT RightFoot
            {
                OFFSET 0.000000 -42.057999 0.000000
                CHANNELS 3 Yrotation Xrotation Zrotation
                End Site
                {
                    OFFSET 0.000000 -10.000000 15.120000
                }
            }
        }
    }
    JOINT LeftUpLeg
    {
        OFFSET 11.000000 -0.000000 0.000000
        CHANNELS 3 Yrotation Xrotation Zrotation
        JOINT LeftLeg
        {
            OFFSET 0.000000 -45.062000 0.000000
            CHANNELS 3 Yrotation Xrotation Zrotation
            JOINT LeftFoot
            {
                OFFSET 0.000000 -42.057999 0.000000
                CHANNELS 3 Yrotation Xrotation Zrotation
                End Site
                {
                    OFFSET 0.000000 -10.000000 15.120000
                }
            }
        }
    }
    JOINT Spine
    {
        OFFSET 0.000000 8.120000 0.000000
        CHANNELS 3 Yrotation Xrotation Zrotation
        JOINT Spine1
        {
            OFFSET 0.000000 17.980000 0.000000
            CHANNELS 3 Yrotation Xrotation Zrotation
            JOINT Spine2
            {
                OFFSET 0.000000 12.760000 0.000000
                CHANNELS 3 Yrotation Xrotation Zrotation
                JOINT Neck
                {
                    OFFSET 0.000000 19.139999 0.000000
                    CHANNELS 3 Yrotation Xrotation Zrotation
                    JOINT Neck1
                    {
                        OFFSET 0.000000 4.250000 0.000000
                        CHANNELS 3 Yrotation Xrotation Zrotation
                        JOINT Head
                        {
                            OFFSET 0.000000 4.250000 0.000000
                            CHANNELS 3 Yrotation Xrotation Zrotation
                            End Site
                            {
                                OFFSET 0.000000 19.120001 0.000000
                            }
                        }
                    }
                }
                JOINT RightShoulder
                {
                    OFFSET -2.900000 13.340000 0.000000
                    CHANNELS 3 Yrotation Xrotation Zrotation
                    JOINT RightArm
                    {
                        OFFSET -16.100000 0.000000 0.000000
                        CHANNELS 3 Yrotation Xrotation Zrotation
                        JOINT RightForeArm
                        {
                            OFFSET -28.000000 0.000000 0.000000
                            CHANNELS 3 Yrotation Xrotation Zrotation
                            JOINT RightHand
                            {
                                OFFSET -26.000000 0.000000 0.000000
                                CHANNELS 3 Yrotation Xrotation Zrotation
                                JOINT RightHandThumb1
                                {
                                    OFFSET -1.937000 -0.484000 2.518000
                                    CHANNELS 3 Yrotation Xrotation Zrotation
                                    JOINT RightHandThumb2
                                    {
                                        OFFSET -3.872000 0.000000 0.000000
                                        CHANNELS 3 Yrotation Xrotation Zrotation
                                        JOINT RightHandThumb3
                                        {
                                            OFFSET -2.690000 0.000000 0.000000
                                            CHANNELS 3 Yrotation Xrotation Zrotation
                                            End Site
                                            {
                                                OFFSET -2.537000 0.000000 0.000000
                                            }
                                        }
                                    }
                                }
                                JOINT RightInHandIndex
                                {
                                    OFFSET -3.389000 0.535000 2.080000
                                    CHANNELS 3 Yrotation Xrotation Zrotation
                                    JOINT RightHandIndex1
                                    {
                                        OFFSET -5.485000 -0.096000 1.051000
                                        CHANNELS 3 Yrotation Xrotation Zrotation
                                        JOINT RightHandIndex2
                                        {
                                            OFFSET -3.806000 0.000000 0.000000
                                            CHANNELS 3 Yrotation Xrotation Zrotation
                                            JOINT RightHandIndex3
                                            {
                                                OFFSET -2.158000 0.000000 0.000000
                                                CHANNELS 3 Yrotation Xrotation Zrotation
                                                End Site
                                                {
                                                    OFFSET -1.898000 0.000000 0.000000
                                                }
                                            }
                                        }
                                    }
                                }
                                JOINT RightInHandMiddle
                                {
                                    OFFSET -3.556000 0.544000 0.796000
                                    CHANNELS 3 Yrotation Xrotation Zrotation
                                    JOINT RightHandMiddle1
                                    {
                                        OFFSET -5.441000 -0.088000 0.330000
                                        CHANNELS 3 Yrotation Xrotation Zrotation
                                        JOINT RightHandMiddle2
                                        {
                                            OFFSET -4.153000 0.000000 0.000000
                                            CHANNELS 3 Yrotation Xrotation Zrotation
                                            JOINT RightHandMiddle3
                                            {
                                                OFFSET -2.603000 0.000000 0.000000
                                                CHANNELS 3 Yrotation Xrotation Zrotation
                                                End Site
                                                {
                                                    OFFSET -2.076000 0.000000 0.000000
                                                }
                                            }
                                        }
                                    }
                                }
                                JOINT RightInHandRing
                                {
                                    OFFSET -3.539000 0.566000 -0.136000
                                    CHANNELS 3 Yrotation Xrotation Zrotation
                                    JOINT RightHandRing1
                                    {
                                        OFFSET -4.873000 -0.023000 -0.504000
                                        CHANNELS 3 Yrotation Xrotation Zrotation
                                        JOINT RightHandRing2
                                        {
                                            OFFSET -3.619000 0.000000 0.000000
                                            CHANNELS 3 Yrotation Xrotation Zrotation
                                            JOINT RightHandRing3
                                            {
                                                OFFSET -2.511000 0.000000 0.000000
                                                CHANNELS 3 Yrotation Xrotation Zrotation
                                                End Site
                                                {
                                                    OFFSET -1.952000 0.000000 0.000000
                                                }
                                            }
                                        }
                                    }
                                }
                                JOINT RightInHandPinky
                                {
                                    OFFSET -3.324000 0.494000 -1.264000
                                    CHANNELS 3 Yrotation Xrotation Zrotation
                                    JOINT RightHandPinky1
                                    {
                                        OFFSET -4.354000 -0.023000 -1.147000
                                        CHANNELS 3 Yrotation Xrotation Zrotation
                                        JOINT RightHandPinky2
                                        {
                                            OFFSET -2.898000 0.000000 0.000000
                                            CHANNELS 3 Yrotation Xrotation Zrotation
                                            JOINT RightHandPinky3
                                            {
                                                OFFSET -1.831000 0.000000 0.000000
                                                CHANNELS 3 Yrotation Xrotation Zrotation
                                                End Site
                                                {
                                                    OFFSET -1.730000 0.000000 0.000000
                                                }
                                            }
                                        }
                                    }
                                }
                            }
                        }
                    }
                }
                JOINT LeftShoulder
                {
                    OFFSET 2.900000 13.340000 0.000000
                    CHANNELS 3 Yrotation Xrotation Zrotation
                    JOINT LeftArm
                    {
                        OFFSET 16.100000 0.000000 0.000000
                        CHANNELS 3 Yrotation Xrotation Zrotation
                        JOINT LeftForeArm
                        {
                            OFFSET 28.000000 0.000000 0.000000
                            CHANNELS 3 Yrotation Xrotation Zrotation
                            JOINT LeftHand
                            {
                                OFFSET 26.000000 0.000000 0.000000
                                CHANNELS 3 Yrotation Xrotation Zrotation
                                JOINT LeftHandThumb1
                                {
                                    OFFSET 1.937000 -0.484000 2.518000
                                    CHANNELS 3 Yrotation Xrotation Zrotation
                                    JOINT LeftHandThumb2
                                    {
                                        OFFSET 3.872000 0.000000 0.000000
                                        CHANNELS 3 Yrotation Xrotation Zrotation
                                        JOINT LeftHandThumb3
                                        {
                                            OFFSET 2.690000 0.000000 0.000000
                                            CHANNELS 3 Yrotation Xrotation Zrotation
                                            End Site
                                            {
                                                OFFSET 2.537000 0.000000 0.000000
                                            }
                                        }
                                    }
                                }
                                JOINT LeftInHandIndex
                                {
                                    OFFSET 3.389000 0.535000 2.080000
                                    CHANNELS 3 Yrotation Xrotation Zrotation
                                    JOINT LeftHandIndex1
                                    {
                                        OFFSET 5.485000 -0.096000 1.051000
                                        CHANNELS 3 Yrotation Xrotation Zrotation
                                        JOINT LeftHandIndex2
                                        {
                                            OFFSET 3.806000 0.000000 0.000000
                                            CHANNELS 3 Yrotation Xrotation Zrotation
                                            JOINT LeftHandIndex3
                                            {
                                                OFFSET 2.158000 0.000000 0.000000
                                                CHANNELS 3 Yrotation Xrotation Zrotation
                                                End Site
                                                {
                                                    OFFSET 1.898000 0.000000 0.000000
                                                }
                                            }
                                        }
                                    }
                                }
                                JOINT LeftInHandMiddle
                                {
                                    OFFSET 3.556000 0.544000 0.796000
                                    CHANNELS 3 Yrotation Xrotation Zrotation
                                    JOINT LeftHandMiddle1
                                    {
                                        OFFSET 5.441000 -0.088000 0.330000
                                        CHANNELS 3 Yrotation Xrotation Zrotation
                                        JOINT LeftHandMiddle2
                                        {
                                            OFFSET 4.153000 0.000000 0.000000
                                            CHANNELS 3 Yrotation Xrotation Zrotation
                                            JOINT LeftHandMiddle3
                                            {
                                                OFFSET 2.603000 0.000000 0.000000
                                                CHANNELS 3 Yrotation Xrotation Zrotation
                                                End Site
                                                {
                                                    OFFSET 2.076000 0.000000 0.000000
                                                }
                                            }
                                        }
                                    }
                                }
                                JOINT LeftInHandRing
                                {
                                    OFFSET 3.539000 0.566000 -0.136000
                                    CHANNELS 3 Yrotation Xrotation Zrotation
                                    JOINT LeftHandRing1
                                    {
                                        OFFSET 4.873000 -0.023000 -0.504000
                                        CHANNELS 3 Yrotation Xrotation Zrotation
                                        JOINT LeftHandRing2
                                        {
                                            OFFSET 3.619000 0.000000 0.000000
                                            CHANNELS 3 Yrotation Xrotation Zrotation
                                            JOINT LeftHandRing3
                                            {
                                                OFFSET 2.511000 0.000000 0.000000
                                                CHANNELS 3 Yrotation Xrotation Zrotation
                                                End Site
                                                {
                                                    OFFSET 1.952000 0.000000 0.000000
                                                }
                                            }
                                        }
                                    }
                                }
                                JOINT LeftInHandPinky
                                {
                                    OFFSET 3.324000 0.494000 -1.264000
                                    CHANNELS 3 Yrotation Xrotation Zrotation
                                    JOINT LeftHandPinky1
                                    {
                                        OFFSET 4.354000 -0.023000 -1.147000
                                        CHANNELS 3 Yrotation Xrotation Zrotation
                                        JOINT LeftHandPinky2
                                        {
                                            OFFSET 2.898000 0.000000 0.000000
                                            CHANNELS 3 Yrotation Xrotation Zrotation
                                            JOINT LeftHandPinky3
                                            {
                                                OFFSET 1.831000 0.000000 0.000000
                                                CHANNELS 3 Yrotation Xrotation Zrotation
                                                End Site
                                                {
                                                    OFFSET 1.730000 0.000000 0.000000
                                                }
                                            }
                                        }
                                    }
                                }
                            }
                        }
                    }
                }
            }
        }
    }
}
MOTION
Frames: 4
Frame Time: 0.011111
-1.822819 177.832779 175.344116 12.721603 53.170185 -1.665716 8.542559 -109.490875 -23.623734 116.442596 110.995361 135.393066 163.627731 -157.498596 -177.857040 25.396009 -112.637070 -4.710801 14.846455 81.602081 -16.430227 177.419052 -164.145569 -167.350967 178.049103 157.535904 179.216507 179.342010 157.954224 179.908478 176.775070 164.048386 178.796539 0.000109 -10.923123 1.026362 0.000095 -12.743663 1.063015 168.033401 -170.959274 -177.364105 28.357613 -9.162748 -16.391439 75.032829 -45.876255 13.777157 172.621460 170.525818 171.941040 163.002029 155.149307 128.055237 74.827698 33.790405 31.030558 0.001295 -0.000031 6.032723 0.000864 0.000074 4.017780 0.000000 0.000002 0.000000 14.990595 0.006875 5.755587 179.991699 179.995300 -175.290894 179.993927 179.997269 -176.703629 0.000000 0.000002 0.000000 179.973328 179.967514 168.294647 0.000003 0.000002 0.000000 0.000003 0.000002 0.000000 0.000000 0.000002 0.000000 169.995438 179.986862 174.635284 0.000000 -0.000002 0.000000 0.000000 -0.000002 0.000000 0.000000 0.000002 0.000000 159.999512 -179.995804 -170.323898 0.000245 -0.006335 14.514159 0.001171 -0.004070 9.666430 166.073715 -167.760010 -174.435623 135.826950 -154.108307 162.791214 178.185806 177.895340 -171.699265 179.830200 -176.907394 -149.665466 123.828705 148.305435 171.035233 0.000476 -0.000715 -7.954058 0.000257 -0.000523 -5.297416 0.000000 -0.000000 0.000000 164.993393 179.995621 -178.895020 179.994629 179.996353 -179.095917 179.996262 179.997421 -179.367142 0.000000 -0.000000 0.000000 179.985168 179.996368 -177.949753 179.990509 179.997803 -179.312881 179.993698 179.998520 -179.542389 0.000000 -0.000000 0.000000 9.992281 0.001315 -5.433661 179.992447 179.997894 174.566345 179.995163 179.998077 176.381195 0.000000 -0.000000 0.000000 19.990282 0.001338 -15.730646 179.986588 179.993973 156.404022 179.993530 179.992661 164.285080
-1.510901 178.272217 175.266144 12.353534 52.929401 -1.673087 9.465262 -108.941498 -24.431904 119.031387 111.284409 137.634460 163.619110 -157.974762 -177.834579 26.178352 -111.958427 -6.105999 20.682341 80.868591 -10.568461 177.429199 -164.134430 -167.595367 178.061203 157.639740 179.187286 179.380371 158.056961 179.829010 177.021423 164.125000 178.762421 0.000099 -10.906073 0.974083 0.000101 -12.723758 1.008875 167.951920 -170.968002 -177.389679 28.195480 -9.234055 -16.089205 75.425232 -46.188900 13.632984 171.975754 170.884171 171.863663 162.956680 155.558044 130.378540 74.603134 34.454643 30.578787 179.998413 179.999954 -174.211304 179.998962 -179.999924 -176.144714 0.000003 0.000002 -0.000003 14.991755 0.006581 7.162351 179.992554 179.995651 -174.139893 179.994446 179.997589 -175.897919 0.000003 0.000002 -0.000003 179.996429 179.993179 177.959793 179.998459 179.996902 179.653595 179.998962 179.997940 179.769287 0.000003 0.000002 -0.000003 169.999878 179.993011 177.976379 179.999985 179.996674 179.622894 179.999985 179.997772 179.748840 0.000003 0.000002 -0.000003 159.998596 -179.997238 -171.331451 179.998505 -179.995605 -166.997177 179.999649 -179.996933 -171.340134 166.140732 -167.804276 -174.972214 135.582062 -153.820908 163.190216 178.108170 177.732925 -171.642578 0.779061 -1.580094 26.834139 123.386383 147.927475 170.145203 0.000993 -0.000951 -8.018972 0.000564 -0.000726 -5.340647 180.000000 180.000000 -180.000000 164.996826 179.995651 177.585297 179.997650 179.996262 178.024338 179.998505 179.997299 178.617035 180.000000 180.000000 -180.000000 179.989563 179.995850 179.243149 179.989731 179.995422 179.243149 179.993271 179.996719 179.495941 180.000000 180.000000 -180.000000 9.993143 0.001846 -6.412547 179.993423 179.997314 173.587463 179.995865 179.997696 175.729248 180.000000 180.000000 -180.000000 19.993099 0.001447 -16.812864 179.990768 179.994797 154.780716 179.995987 179.994186 163.203949
-1.255278 178.728592 175.231476 12.079325 52.661488 -1.565274 9.636072 -108.152954 -24.311142 121.349594 111.937187 139.784851 163.572449 -158.552399 -177.762894 26.653475 -111.276840 -7.133030 24.924906 80.194359 -6.210043 177.445618 -164.077133 -167.853271 177.985565 157.747330 179.093933 179.418823 158.161575 179.753708 177.264740 164.202316 178.733292 0.000102 -10.889549 0.914528 0.000098 -12.704471 0.947190 167.892654 -170.974045 -177.423569 28.025396 -9.287283 -15.780775 75.597382 -45.927692 13.663312 171.710785 171.944031 171.905746 162.578308 155.353058 132.469818 73.895882 34.947403 30.092598 179.997284 179.999817 -174.055878 179.998184 -179.999939 -176.041214 0.000000 0.000002 0.000002 14.992728 0.005802 9.427319 179.993286 179.996429 -172.286758 179.994980 179.998230 -174.600723 0.000000 0.000002 0.000002 179.997650 179.995331 -179.531067 179.997513 179.995407 -179.531067 179.998291 179.996979 -179.687698 0.000000 0.000002 0.000002 170.000061 179.995682 -179.397934 179.999954 179.995682 -179.397949 179.999878 179.997116 -179.599030 0.000000 0.000002 0.000002 160.000092 179.999847 -172.605972 0.000094 0.000240 11.091043 0.000027 0.000181 7.386645 166.208130 -167.879440 -175.417633 135.355072 -153.525757 163.526199 178.064896 177.703781 -171.640335 1.644678 -0.227092 23.545855 123.292770 147.659912 169.328476 0.000504 -0.000433 -8.275826 0.000296 -0.000331 -5.511704 0.000000 0.000000 -0.000003 164.997711 179.996689 174.337311 179.998474 179.997086 175.366898 179.999146 179.997864 176.756821 0.000000 0.000000 -0.000003 179.990356 179.995651 176.430542 179.990799 179.994766 176.430542 179.994217 179.995956 177.622726 0.000000 0.000000 -0.000003 9.995528 0.001373 -7.826847 179.995789 179.998001 172.173157 179.997406 179.998276 174.787308 0.000000 0.000000 -0.000003 19.995470 0.001094 -17.927227 179.994064 179.996292 153.109146 179.997635 179.995972 162.090698
-1.055717 179.195984 175.237442 11.762049 52.370914 -1.523478 9.783399 -107.313400 -24.108528 123.271362 112.677345 141.636642 163.587830 -159.092987 -177.711044 26.664513 -110.439384 -7.485203 26.092609 79.460884 -4.711323 177.617432 -164.017426 -168.095993 177.938568 157.865738 179.013702 179.457550 158.277008 179.686722 177.503296 164.286514 178.715042 0.000061 -10.864589 0.834742 0.000058 -12.675381 0.864557 167.856445 -170.982697 -177.476303 27.843948 -9.304145 -15.457987 75.745811 -45.791149 13.729518 171.473190 172.974014 171.956741 162.105453 154.995865 134.473282 72.766426 35.107002 29.248909 179.997284 179.999619 -173.680313 179.998169 179.999969 -175.791092 0.000000 -0.000000 0.000000 14.994794 0.003951 12.284213 179.995102 179.997833 -169.949280 179.996353 179.999176 -172.964493 0.000000 -0.000000 0.000000 179.997406 179.995682 -177.388840 179.997116 179.995865 -177.388840 179.997910 179.997375 -178.260986 0.000000 -0.000000 0.000000 169.999664 179.996460 -177.355209 179.999435 179.996460 -177.355194 179.999481 179.997681 -178.238571 0.000000 -0.000000 0.000000 160.000076 179.999847 -172.534821 0.000077 0.000258 11.197785 0.000010 0.000181 7.457726 166.255157 -167.958115 -175.864975 135.127304 -153.410324 163.854660 178.026001 177.970871 -171.748215 2.444324 1.245263 20.665918 123.372284 147.401138 168.835678 0.000269 -0.000206 -8.466551 0.000155 -0.000157 -5.638721 0.000000 -0.000000 0.000000 164.999405 179.998459 171.032669 179.999725 179.998688 172.663086 179.999954 179.999069 174.864166 0.000000 -0.000000 0.000000 179.996185 179.997803 172.199600 179.996582 179.997238 172.199615 179.998032 179.997833 174.804932 0.000000 -0.000000 0.000000 9.992601 0.002893 -8.683684 179.993225 179.995834 171.316315 179.996048 179.996475 174.216644 0.000000 -0.000000 0.000000 19.997461 0.000742 -18.977518 179.996780 179.997665 151.533737 179.998886 179.997620 161.041473
